<svg width="23" height="23" fill="none" xmlns="http://www.w3.org/2000/svg"><path d="M15.527 22.015H7.271a6.88 6.88 0 0 1-6.88-6.88V6.88A6.88 6.88 0 0 1 7.272 0h8.256a6.88 6.88 0 0 1 6.88 6.88v8.256a6.88 6.88 0 0 1-6.88 6.88zM20.343 6.88a4.821 4.821 0 0 0-4.816-4.816H7.271A4.821 4.821 0 0 0 2.456 6.88v8.256a4.821 4.821 0 0 0 4.815 4.816h8.256a4.821 4.821 0 0 0 4.816-4.816V6.88z" fill="#fff"/><path d="M11.4 16.512a5.504 5.504 0 1 1 0-11.009 5.504 5.504 0 0 1 0 11.009zm0-8.944a3.445 3.445 0 0 0-3.44 3.44 3.444 3.444 0 0 0 3.44 3.44 3.444 3.444 0 0 0 3.44-3.44 3.445 3.445 0 0 0-3.44-3.44zM17.316 16.19a.733.733 0 1 1 0 1.468.733.733 0 0 1 0-1.467z" fill="#fff"/></svg>