<svg width="18" height="23" fill="none" xmlns="http://www.w3.org/2000/svg"><path d="M15.4 2.302C13.885.848 11.787.046 9.495.046c-3.502 0-5.656 1.436-6.846 2.64C1.182 4.17.34 6.141.34 8.092c0 2.451 1.025 4.332 2.741 5.032a.908.908 0 0 0 .345.07c.362 0 .65-.236.749-.616.058-.218.192-.756.25-.99.125-.46.024-.683-.248-1.004-.497-.587-.728-1.282-.728-2.186 0-2.685 2-5.54 5.706-5.54 2.94 0 4.767 1.672 4.767 4.362 0 1.698-.366 3.27-1.03 4.428-.462.804-1.273 1.762-2.52 1.762-.538 0-1.022-.221-1.327-.607-.289-.365-.384-.836-.268-1.327.131-.555.31-1.134.483-1.693.315-1.022.614-1.987.614-2.757 0-1.317-.81-2.203-2.015-2.203-1.532 0-2.731 1.556-2.731 3.542 0 .973.258 1.702.376 1.982L3.948 16.94c-.126.535-.884 4.76.37 5.097 1.409.379 2.668-3.736 2.796-4.201.104-.378.468-1.808.69-2.688.68.655 1.776 1.098 2.841 1.098 2.009 0 3.815-.903 5.087-2.545 1.233-1.591 1.912-3.81 1.912-6.247 0-1.904-.818-3.782-2.244-5.152z" fill="#fff"/></svg>