<svg width="23" height="18" fill="none" xmlns="http://www.w3.org/2000/svg"><path d="M22.814 2.229a9.02 9.02 0 0 1-2.593.71A4.535 4.535 0 0 0 22.206.444a9.105 9.105 0 0 1-2.87 1.096 4.516 4.516 0 0 0-7.696 4.118A12.822 12.822 0 0 1 2.334.938a4.482 4.482 0 0 0-.611 2.27c0 1.567.798 2.95 2.008 3.759A4.517 4.517 0 0 1 1.685 6.4v.056a4.52 4.52 0 0 0 3.622 4.429 4.575 4.575 0 0 1-1.19.158c-.292 0-.574-.03-.85-.084a4.519 4.519 0 0 0 4.218 3.136 9.061 9.061 0 0 1-5.609 1.93c-.365 0-.724-.021-1.077-.061a12.766 12.766 0 0 0 6.922 2.032c8.308 0 12.85-6.882 12.85-12.85l-.016-.584a9.02 9.02 0 0 0 2.26-2.333z" fill="#fff"/></svg>